# xmcd
#
# Track frame offsets:
#	150
#	9625
#	21990
#	32372
#	45125
#	57396
#	69436
#	81772
#	96901
#	109652
#	125677
#	138412
#	149198
#	161104
#	171839
#	184325
#	199966
#	211220
#	224956
#	234020
#
# Disc length: 3263 seconds
#
# Revision: 0
# Processed by: cddbd v1.4PL0 Copyright (c) Steve Scherf et al.
# Submitted via: dBpowerAMP V4.0
#
DISCID=290cbd14
DTITLE=Porter Wagoner - Tunes
DYEAR=1900
DGENRE=Country
TTITLE0=Dolly Parton and Porter Wagner - If Tear Drops Were Pennies
TTITLE1=Porter Wagner - A Satisfied Mind
TTITLE2=Dolly Parton and Porter Wagner - Just Between You And Me
TTITLE3=Porter Wagner - Carol County Accident
TTITLE4=Dolly Parton and Porter Wagoner - Daddy Did His Best
TTITLE5=Porter Wagner - I've Enjoyed As Much Of This As I Can Stand
TTITLE6=Dolly Parton and Porter Wagoner - Say Forever You'll Be Mine
TTITLE7=Porter Wagner - The Cold Hard Facts Of Life
TTITLE8=Dolly Parton and Porter Wagoner - Forty Miles From Poplar
TTITLE9=Porter Wagner - The Little Boy's Prayer
TTITLE10=Dolly Parton And Porter Wagner - Please Don't Stop Loving Me
TTITLE11=Porter Wagner - Y'all Come
TTITLE12=Dolly Parton And Porter Wagner - Silver Sandals
TTITLE13=Porter Wagoner - Green Green Grass Of Home
TTITLE14=Dolly Parton And Porter Wagner- Jeannies Afraid Of The Dark
TTITLE15=Porter Wagoner - House of Shame
TTITLE16=Dolly Parton And Porter Wagoner - Holding On To Nothin'
TTITLE17=Porter Wagoner - Skid Row Joe
TTITLE18=Porter Wagoner - Sugarfoot Rag
TTITLE19=Porter Wagoner and The Blackwood Brothers Quartet - Where The Soul Never Dies
EXTD=
EXTT0=
EXTT1=
EXTT2=
EXTT3=
EXTT4=
EXTT5=
EXTT6=
EXTT7=
EXTT8=
EXTT9=
EXTT10=
EXTT11=
EXTT12=
EXTT13=
EXTT14=
EXTT15=
EXTT16=
EXTT17=
EXTT18=
EXTT19=
PLAYORDER=
